<svg height="186" viewBox="0 0 107 186" width="107" xmlns="http://www.w3.org/2000/svg"><rect fill="#f8f6f0" height="186" rx="22" width="107"/><g fill="#67543e"><path d="m46.385 43.94c.5-1.365 1.024-3.011 1.706-4.6 1.548-3.583 3.437-6.911 7.191-8.666a7.8 7.8 0 0 1 10.884 5.156 15.084 15.084 0 0 1 -1.134 10.811 163.324 163.324 0 0 1 -9.019 16.479c-2.437 3.82-5.713 7.086-8.629 10.58-.987 1.182-2.011 2.328-3.242 3.742-.646-1.073-1.194-1.962-1.719-2.864q-5.064-8.776-10.1-17.551c-2-3.486-4.437-6.74-5.521-10.689a9.279 9.279 0 0 1 -.488-2.742 69.893 69.893 0 0 1 .524-8c.548-3.8 3.583-5.814 7.435-5.509a9.794 9.794 0 0 1 8.02 5.229c1.6 2.767 2.791 5.789 4.107 8.593zm-.985 29.947c2.3-3.3 4.778-6.655 7.045-10.153 3.145-4.827 6.253-9.69 9.178-14.663 2.048-3.486 3.644-7.191 3.1-11.445a6.064 6.064 0 0 0 -5.789-5.119c-3.6.061-5.655 2.474-7.508 5.046-2.3 3.218-3.242 7.021-4.242 10.787a1.239 1.239 0 0 1 -.975.719 1.424 1.424 0 0 1 -.951-.829c-.987-2.864-1.645-5.875-2.925-8.593a12.462 12.462 0 0 0 -5.485-6.228c-2.121-1.06-4.376-1.463-6.411-.012a5.954 5.954 0 0 0 -2.621 6.521 38.94 38.94 0 0 0 2.182 7.069c2.109 4.644 4.3 9.263 6.838 13.688 2.584 4.5 5.619 8.727 8.556 13.224zm14.855-20.672c-3.011 4.741-6.033 9.483-9.1 14.309 2.25-1.986 8.515-11.639 9.1-14.309zm-9.214-17.115c2.4-2.852 5.095-5.095 9.568-4.619-3.852-1.643-7.801 1.16-9.568 4.619zm-23.792 7.438a15.383 15.383 0 0 0 3.632 8.373c-1.206-2.791-2.425-5.582-3.632-8.373zm2.279-11.03c1.828-1.024 3.791-1.56 5.741-.743 1.8.756 3.474 1.828 5.034 2.657-2.474-3.791-8.386-4.278-10.775-1.914zm10.348 34.456c-.1.061-.207.122-.3.171q2.3 4.15 4.6 8.312c.146-.085.293-.171.439-.244-1.582-2.742-3.166-5.484-4.739-8.239z" transform="translate(25.736 44.741)"/><path d="m23.341 84.354a23.137 23.137 0 0 1 .4-2.816 89.616 89.616 0 0 1 2.742-9.678c1.06-2.694 2.742-5.229 5.8-6.094a6.128 6.128 0 0 1 3.657.037c4.79 1.9 6.253 5.789 5.863 10.689a28.482 28.482 0 0 1 -3.242 10.092c-2.1 4.339-4.071 8.739-6.216 13.042-1.17 2.34-2.608 4.546-3.912 6.826-.5.878-1 .914-1.755.244-4.656-4.083-9.446-8.044-13.968-12.262a43.593 43.593 0 0 1 -4.973-6.253 59.614 59.614 0 0 1 -4.632-6.838 7.841 7.841 0 0 1 -.6-4.29 10.454 10.454 0 0 1 1.426-3.766 5.138 5.138 0 0 1 6.509-2.34 13.836 13.836 0 0 1 2.816 1.243c3.218 2 6.131 4.3 7.715 7.935.6 1.353 1.45 2.608 2.389 4.242zm.548 2.646c-1.816-2.365-3.4-4.266-4.814-6.289a19.23 19.23 0 0 0 -7.569-6.545 10.005 10.005 0 0 0 -3.9-.926 3.6 3.6 0 0 0 -3.806 4.06 15.842 15.842 0 0 0 4.583 9.422c3.986 4.193 8.057 8.288 12.127 12.4 1.828 1.853 3.742 3.632 5.8 5.619 1.743-3.218 3.388-6.106 4.9-9.068 2.706-5.29 5.424-10.567 7.947-15.942 1.389-2.962 2.145-6.094.548-9.324-2-4.059-6.35-4.412-8.983-.756s-3.8 7.874-5.168 12.042c-.536 1.67-1.06 3.34-1.682 5.326zm3.206 18.612c.158.085.317.158.463.244a105.262 105.262 0 0 0 9.19-18.2q-4.827 8.977-9.653 17.966zm-20.209-33.702a32.176 32.176 0 0 1 5.144 1.365 35.176 35.176 0 0 1 4.656 2.9c-2.9-3.157-7.727-5.643-9.8-4.266zm23.3-3.705a20.956 20.956 0 0 0 -4.7 9.909c1.56-3.291 3.108-6.558 4.705-9.914zm-19 22.9-.5.5 3.669 3.388.512-.512c-1.231-1.121-2.462-2.243-3.681-3.364z" transform="translate(20.516 52.52)"/><path d="m20.6 14.456c1.194-4.29 2.816-7.947 5.814-10.848a11.876 11.876 0 0 1 11.077-3.339c1.84.378 2.889 2.1 3.3 4.022a14.035 14.035 0 0 1 -1.255 8.751 60.824 60.824 0 0 1 -11.091 17.49 71.417 71.417 0 0 0 -6.094 7.91c-.792 1.109-1.194 1.024-2.048.122a124.4 124.4 0 0 1 -13.8-17.429c-1.134-1.719-2.45-3.327-3.547-5.083a37.751 37.751 0 0 1 -2.237-4.363c-1.292-2.779-.683-5.473.573-8.081.963-1.987 3.888-2.62 6.313-1.353 5.351 2.791 10.25 6.119 12.993 12.2zm.5 23.865c.268-.353.427-.524.548-.719l14.845-22.89a22.744 22.744 0 0 0 3.376-8.264 4.326 4.326 0 0 0 -4.2-5.217c-3.157-.012-5.546 1.609-7.569 3.778-2.937 3.157-4.875 6.972-6.752 10.8a17.213 17.213 0 0 1 -1.036 1.6 20.344 20.344 0 0 0 -.963-3 20.33 20.33 0 0 0 -10.537-9.887 4.847 4.847 0 0 0 -4.583-.037c-1.986 1.244-2.169 3.377-1.694 5.254a27.3 27.3 0 0 0 2.913 7.532c2.6 4.229 5.558 8.239 8.52 12.225 2.23 3.011 4.717 5.826 7.142 8.8zm15.563-21.159c-.11-.061-.219-.122-.317-.183-1.731 2.779-3.462 5.57-5.192 8.349.11.061.219.134.329.2l5.192-8.373zm-30.447-14.236c-2.523-.914-4.571.488-4.558 3.193a4.238 4.238 0 0 1 4.558-3.193z" transform="translate(19.979 38.185)"/></g></svg>